<?xml version="1.0" encoding="UTF-8"?>
<svg class="svg-canvas" viewBox="135 110 540 350" width="540" height="350" preserveAspectRatio="none" version="1.1"
     xmlns="http://www.w3.org/2000/svg"
     style="background: none;">
  <!--滤镜-->


  <!-- 背景 -->
  <g id="background">


  </g>

  <!--元素-->

  <g id="shape_Qu7awG1268" ref="shape_Qu7awG1268" key="shape_Qu7awG1268" mask="">
    <g transform="translate(127,124.0609324674) rotate(0,280,165.9390675326) scale(1,1)"
       style="opacity: 1;mix-blend-mode: undefined;" filter="">
      <!--普通元素-->
      <svg data-noselect="" viewBox="226.70681226667773 82.52330644317703 378.78 224.48000000000002" width="560"
           height="331.87813506521" ref="svg_canvas" preserveAspectRatio="none" version="1.1"
           xmlns="http://www.w3.org/2000/svg" style="background: transparent;" class="style-removed"
           data-parent="shape_Qu7awG1268">
        <defs></defs>

        <g id="shape_GhDKMseSsz" class="icon custom-icon text brand_word_letter" ref="shape_GhDKMseSsz"
           key="shape_GhDKMseSsz" mask="">
          <g
            transform="translate(-195.58618432116998,-562.944415548383) rotate(0,703.44772199156,756.94772199156) scale(1,1)"
            style="" filter="" cursor="move" display="inline" opacity="1">
            <g style="" display="inline">
              <svg xmlns="http://www.w3.org/2000/svg" version="1.1" width="1406.89544398312" height="1513.89544398312"
                   viewBox="0 0 1406.89544398312 1513.89544398312" data-ligature="true" preserveAspectRatio="none"
                   data-parent="shape_GhDKMseSsz">
                <g data-role="border" data-width="144.4894508074247" data-height="252"
                   transform="translate(631.2029965878477, 630.94772199156)">
                  <path
                    d="M55.73 0L18.09 0L18.09-156.48L72.98-156.48Q90.23-156.48 104.53-151.85Q118.83-147.22 127.35-136.08Q135.87-124.93 135.87-105.58L135.87-105.58Q135.87-87.07 127.24-75.19Q118.62-63.31 104.63-57.63Q90.65-51.95 74.03-51.95L74.03-51.95L55.73-51.95L55.73 0ZM55.73-126.82L55.73-81.60L72.14-81.60Q85.81-81.60 92.54-87.81Q99.27-94.01 99.27-105.58L99.27-105.58Q99.27-117.36 92.02-122.09Q84.76-126.82 71.09-126.82L71.09-126.82L55.73-126.82Z"
                    transform="translate(0 205) " fill="#ffffff" stroke="#ffffff" stroke-width="33.351"
                    stroke-miterlimit="3" data-glyph-w="124.48945080742472" data-glyph-h="210.32"
                    data-glyph-ascender="185.0816" data-glyph-descender="-25.238400000000002" data-kerning="0"></path>
                </g>
                <g data-role="text" data-width="144.4894508074247" data-height="252"
                   transform="translate(631.2029965878477, 630.94772199156)">
                  <path
                    d="M55.73 0L18.09 0L18.09-156.48L72.98-156.48Q90.23-156.48 104.53-151.85Q118.83-147.22 127.35-136.08Q135.87-124.93 135.87-105.58L135.87-105.58Q135.87-87.07 127.24-75.19Q118.62-63.31 104.63-57.63Q90.65-51.95 74.03-51.95L74.03-51.95L55.73-51.95L55.73 0ZM55.73-126.82L55.73-81.60L72.14-81.60Q85.81-81.60 92.54-87.81Q99.27-94.01 99.27-105.58L99.27-105.58Q99.27-117.36 92.02-122.09Q84.76-126.82 71.09-126.82L71.09-126.82L55.73-126.82Z"
                    transform="translate(0 205) " fill="rgb(140, 87, 255)" stroke="rgb(140, 87, 255)"
                    stroke-width="0.351" data-glyph-w="124.48945080742472" data-glyph-h="210.32"
                    data-glyph-ascender="185.0816" data-glyph-descender="-25.238400000000002" data-kerning="0"></path>
                </g>
              </svg>
            </g>
          </g>
        </g>
        <g id="shape_m5SrZGu7uo" class="icon custom-icon text brand_word_letter" ref="shape_m5SrZGu7uo"
           key="shape_m5SrZGu7uo" mask="">
          <g
            transform="translate(-312.08618432117,-562.944415548383) rotate(0,723.44772199156,756.94772199156) scale(1,1)"
            style="" filter="" cursor="move" display="inline" opacity="1">
            <g style="" display="inline">
              <svg xmlns="http://www.w3.org/2000/svg" version="1.1" width="1446.89544398312" height="1513.89544398312"
                   viewBox="0 0 1446.89544398312 1513.89544398312" data-ligature="true" preserveAspectRatio="none"
                   data-parent="shape_m5SrZGu7uo">
                <g data-role="border" data-width="184.4502508074247" data-height="252"
                   transform="translate(631.2225965878476, 630.94772199156)">
                  <path
                    d="M51.74 0L18.09 0L18.09-156.48L58.68-156.48L83.50-88.97Q86.44-80.13 89.18-70.67L89.18-70.67Q90.65-65.62 92.12-60.36L92.12-60.36L93.17-60.36Q95.49-67.72 97.59-75.29L97.59-75.29Q99.69-82.24 101.79-88.97L101.79-88.97L125.77-156.48L166.57-156.48L166.57 0L132.29 0L132.29-53.63Q132.29-64.99 133.87-79.71Q135.45-94.43 136.92-106.42L136.92-106.42Q137.13-107.26 137.13-107.89L137.13-107.89L136.29-107.89L123.25-70.46L102.22-13.25L81.60-13.25L60.36-70.46L47.74-107.89L46.90-107.89Q46.90-107.26 47.11-106.42L47.11-106.42Q48.58-94.43 50.16-79.71Q51.74-64.99 51.74-53.63L51.74-53.63L51.74 0Z"
                    transform="translate(0 205) " fill="#ffffff" stroke="#ffffff" stroke-width="33.351"
                    stroke-miterlimit="3" data-glyph-w="164.4502508074247" data-glyph-h="210.32"
                    data-glyph-ascender="185.0816" data-glyph-descender="-25.238400000000002" data-kerning="0"></path>
                </g>
                <g data-role="text" data-width="184.4502508074247" data-height="252"
                   transform="translate(631.2225965878476, 630.94772199156)">
                  <path
                    d="M51.74 0L18.09 0L18.09-156.48L58.68-156.48L83.50-88.97Q86.44-80.13 89.18-70.67L89.18-70.67Q90.65-65.62 92.12-60.36L92.12-60.36L93.17-60.36Q95.49-67.72 97.59-75.29L97.59-75.29Q99.69-82.24 101.79-88.97L101.79-88.97L125.77-156.48L166.57-156.48L166.57 0L132.29 0L132.29-53.63Q132.29-64.99 133.87-79.71Q135.45-94.43 136.92-106.42L136.92-106.42Q137.13-107.26 137.13-107.89L137.13-107.89L136.29-107.89L123.25-70.46L102.22-13.25L81.60-13.25L60.36-70.46L47.74-107.89L46.90-107.89Q46.90-107.26 47.11-106.42L47.11-106.42Q48.58-94.43 50.16-79.71Q51.74-64.99 51.74-53.63L51.74-53.63L51.74 0Z"
                    transform="translate(0 205) " fill="rgb(140, 87, 255)" stroke="rgb(140, 87, 255)"
                    stroke-width="0.351" data-glyph-w="164.4502508074247" data-glyph-h="210.32"
                    data-glyph-ascender="185.0816" data-glyph-descender="-25.238400000000002" data-kerning="0"></path>
                </g>
              </svg>
            </g>
          </g>
        </g>
        <g id="shape_MBN9cAwyOG" class="icon custom-icon text brand_word_letter" ref="shape_MBN9cAwyOG"
           key="shape_MBN9cAwyOG" mask="">
          <g
            transform="translate(-388.58618432117,-562.944415548383) rotate(0,703.44772199156,756.94772199156) scale(1,1)"
            style="" filter="" cursor="move" display="inline" opacity="1">
            <g style="" display="inline">
              <svg xmlns="http://www.w3.org/2000/svg" version="1.1" width="1406.89544398312" height="1513.89544398312"
                   viewBox="0 0 1406.89544398312 1513.89544398312" data-ligature="true" preserveAspectRatio="none"
                   data-parent="shape_MBN9cAwyOG">
                <g data-role="border" data-width="144.4894508074247" data-height="252"
                   transform="translate(631.2029965878477, 630.94772199156)">
                  <path
                    d="M55.73 0L18.09 0L18.09-156.48L72.98-156.48Q90.23-156.48 104.53-151.85Q118.83-147.22 127.35-136.08Q135.87-124.93 135.87-105.58L135.87-105.58Q135.87-87.07 127.24-75.19Q118.62-63.31 104.63-57.63Q90.65-51.95 74.03-51.95L74.03-51.95L55.73-51.95L55.73 0ZM55.73-126.82L55.73-81.60L72.14-81.60Q85.81-81.60 92.54-87.81Q99.27-94.01 99.27-105.58L99.27-105.58Q99.27-117.36 92.02-122.09Q84.76-126.82 71.09-126.82L71.09-126.82L55.73-126.82Z"
                    transform="translate(0 205) " fill="#ffffff" stroke="#ffffff" stroke-width="33.351"
                    stroke-miterlimit="3" data-glyph-w="124.48945080742472" data-glyph-h="210.32"
                    data-glyph-ascender="185.0816" data-glyph-descender="-25.238400000000002" data-kerning="0"></path>
                </g>
                <g data-role="text" data-width="144.4894508074247" data-height="252"
                   transform="translate(631.2029965878477, 630.94772199156)">
                  <path
                    d="M55.73 0L18.09 0L18.09-156.48L72.98-156.48Q90.23-156.48 104.53-151.85Q118.83-147.22 127.35-136.08Q135.87-124.93 135.87-105.58L135.87-105.58Q135.87-87.07 127.24-75.19Q118.62-63.31 104.63-57.63Q90.65-51.95 74.03-51.95L74.03-51.95L55.73-51.95L55.73 0ZM55.73-126.82L55.73-81.60L72.14-81.60Q85.81-81.60 92.54-87.81Q99.27-94.01 99.27-105.58L99.27-105.58Q99.27-117.36 92.02-122.09Q84.76-126.82 71.09-126.82L71.09-126.82L55.73-126.82Z"
                    transform="translate(0 205) " fill="rgb(140, 87, 255)" stroke="rgb(140, 87, 255)"
                    stroke-width="0.351" data-glyph-w="124.48945080742472" data-glyph-h="210.32"
                    data-glyph-ascender="185.0816" data-glyph-descender="-25.238400000000002" data-kerning="0"></path>
                </g>
              </svg>
            </g>
          </g>
        </g>
      </svg>
    </g>
  </g>
</svg>